<svg xmlns="http://www.w3.org/2000/svg" xml:space="preserve" width="800" height="800" viewBox="0 0 100 100"><path d="M47.052 93.821c-9.224-.488-15.588-2.377-19.583-5.809-6.873-5.907-10.793-14.294-17.517-37.48-.9-3.103-1.892-6.454-2.206-7.448C5.683 36.55 2.7 24.001.856 14.112c-.232-1.24-.476-2.525-.549-2.859C-.03 9.652.66 8.382 2.15 7.856c3.56-1.255 47.57-2.211 69.48-1.508l7.75.244c8.796.273 17.284.837 18.504 1.23 1.262.403 2.113 1.882 1.843 3.19-.07.334-.346 1.822-.613 3.307-4.106 22.689-14.6 57.022-20.27 66.304-2.591 4.245-6.32 7.997-9.615 9.68-4.757 2.428-14.256 3.937-22.175 3.518zm8.113-9.374c9.371-.811 14.599-4.205 19.109-12.411 2.237-4.074 7.227-16.602 11.042-27.726 4.71-13.739 10.964-35.835 10.27-36.277-.48-.302-.87-.064-1.006.62-1.461 7.252-5.466 19.48-8.186 25.002-3.341 6.788-8.76 14.288-13.067 18.083l-1.03.907-1.583 3.943C63.592 74.34 62.4 75.424 50.018 75.424c-12.297 0-13.785-1.337-20.58-18.525-.685-1.732-1.336-3.4-1.45-3.705-.147-.398-.374-.686-.79-1.003-2.72-2.075-8.578-9.557-11.623-14.843C12.047 31.219 8.499 21.395 6 10.832c-.735-3.104-.666-2.927-1.119-2.883-.7.067-.392 1.81 1.558 8.84 5.733 20.64 10.876 35.835 16.877 49.862 3.275 7.654 6.105 11.597 10.319 14.373 3.124 2.057 6.09 2.926 11.842 3.47 1.04.098 8.43.063 9.685-.044zm.241-9.64c5.109-.656 7.634-2.574 10.232-7.77.993-1.987 5.33-12.475 5.811-14.058l.09-.294-2.283.079c-1.256.043-3.84.145-5.737.226-4.574.195-22.221.195-26.88 0a1087 1087 0 0 0-5.86-.226l-2.287-.079.08.326c.091.363 3.014 7.697 4.238 10.63 2.734 6.561 4.992 9.333 8.49 10.429 3.06.959 9.692 1.305 14.106.738m9.99-22.494c2.398-.101 4.975-.218 5.728-.261l1.369-.079.732-.677c2.046-1.894 5.771-6.422 8.238-10.013 5.06-7.361 8.831-16.744 12.286-30.553.788-3.147.887-2.862-1.028-2.967-26.613-1.482-56.642-1.552-81.569-.198-1.197.064-2.874.154-3.722.198-1.976.102-1.89-.105-1.166 2.772C11.111 29.83 16.554 40.818 26.06 50.5l1.442 1.468 1.15.075c1.078.07 9.503.395 12.592.485 3.495.102 20.129-.046 24.156-.215zM18.161 31.841c-.142-.104-.166-.988-.14-5.512l.033-5.388 4.297-.035c2.83-.023 4.548.012 5.025.102 5.687 1.07 6.02 9.203.438 10.697-1.054.282-9.298.404-9.653.14zm8.363-2.882c1.872-1.061 1.671-4.62-.3-5.283-.6-.2-4.247-.186-4.378.017-.114.177-.137 5.062-.026 5.35.13.343 4.074.273 4.704-.084m5.083 2.903c-.093-.244 2.185-5.336 3.847-8.599 1-1.964 1.72-2.38 4.153-2.4 3.19-.026 3.19-.023 7.064 8.56 1.287 2.857 1.374 2.596-.86 2.593-2.156-.003-2.014.055-2.531-1.029l-.404-.849H36.46l-.968 1.817-1.91.032c-1.516.026-1.923 0-1.972-.131zm9.944-4.214c.104-.168-1.764-3.984-1.95-3.984-.169 0-2.02 3.856-1.927 4.007.099.163 3.775.14 3.874-.023zm10.284 4.24c-4.321-.628-6.094-6.196-2.967-9.328 1.5-1.502 2.327-1.694 7.171-1.65l3.668.031v2.543l-6.94.122-.456.369c-1.456 1.18-1.33 4.022.221 4.96.363.218.686.244 3.786.3l3.392.06v2.665l-3.572.018c-1.964.008-3.9-.032-4.298-.09zm9.641-.03c-.101-.121-.13-1.615-.107-5.54l.032-5.374h3.632v11.02l-1.708.034c-1.343.026-1.738-.003-1.848-.133zm4.775.053c-.166-.267 4.1-9.389 4.699-10.043 1.316-1.441 5.652-1.351 6.788.14.686.9 4.76 9.729 4.574 9.915-.058.058-.945.09-1.973.07l-1.869-.035-.968-1.817h-6.416l-.392.773c-.599 1.177-.427 1.105-2.522 1.105-1.02 0-1.886-.05-1.924-.11zm9.982-4.312c0-.273-1.782-3.935-1.915-3.935-.186 0-.306.21-1.154 2.023-1.075 2.295-1.186 2.095 1.13 2.095 1.648 0 1.939-.026 1.939-.183" style="stroke-width:2.90589643"/></svg>